<svg id="Logo" xmlns="http://www.w3.org/2000/svg" xmlns:xlink="http://www.w3.org/1999/xlink" width="98.828" height="34.928" viewBox="0 0 98.828 34.928">
  <defs>
    <style>
      .cls-1 {
        fill: none;
      }

      .cls-2 {
        fill: #1a1718;
      }

      .cls-3 {
        clip-path: url(#clip-path);
      }

      .cls-4 {
        fill: #f5bab9;
      }
    </style>
    <clipPath id="clip-path">
      <rect id="Rectangle_2093" data-name="Rectangle 2093" class="cls-1" width="98.828" height="34.928"/>
    </clipPath>
  </defs>
  <g id="Group_1654" data-name="Group 1654">
    <path id="Path_4858" data-name="Path 4858" class="cls-2" d="M19.15,27.179,2.571,6.333H4.232L19.476,25.42V6.333h1.466V27.179Zm-16.514,0V8.222L4.1,10.079v17.1Z" transform="translate(-2.211 -5.447)"/>
    <path id="Path_4859" data-name="Path 4859" class="cls-2" d="M310.248,27.179l-9.12-20.846h1.6l9.055,20.846Zm2.117-1.336-.717-1.726,7.784-17.784h1.629Z" transform="translate(-259.36 -5.447)"/>
    <path id="Path_4860" data-name="Path 4860" class="cls-2" d="M568.553,27.179h1.629l7.785-17.784-.716-1.726Zm9.283-20.846,9.055,20.846h1.6l-9.12-20.846Z" transform="translate(-489.692 -5.447)"/>
    <g id="Group_1653" data-name="Group 1653">
      <g id="Group_1652" data-name="Group 1652" class="cls-3">
        <path id="Path_4861" data-name="Path 4861" class="cls-2" d="M0,190.561v-9.422H1.865a4.757,4.757,0,0,1,3.475,1.314,4.905,4.905,0,0,1,1.356,3.4,4.874,4.874,0,0,1-1.356,3.39,4.757,4.757,0,0,1-3.475,1.314ZM.622,190H1.851a3.975,3.975,0,0,0,4.2-4.139,4.009,4.009,0,0,0-4.2-4.153H.622Z" transform="translate(0 -155.972)"/>
        <rect id="Rectangle_2091" data-name="Rectangle 2091" class="cls-2" width="0.622" height="9.422" transform="translate(12.968 25.167)"/>
        <path id="Path_4862" data-name="Path 4862" class="cls-2" d="M142.856,179.1l-3.969,9.7h.678l1.257-3.094.226-.565,1.794-4.464,1.766,4.464.226.565,1.257,3.094h.678Z" transform="translate(-119.59 -154.22)"/>
        <path id="Path_4863" data-name="Path 4863" class="cls-2" d="M235.987,188.547l1.074-9.747,4.082,8.716,4.082-8.716,1.074,9.747h-.622l-.833-7.572s-3.687,7.911-3.7,7.911l-3.7-7.911-.833,7.572Z" transform="translate(-203.2 -153.958)"/>
        <path id="Path_4864" data-name="Path 4864" class="cls-2" d="M364.415,185.083a4.888,4.888,0,1,1-4.888-4.86,4.809,4.809,0,0,1,4.888,4.86m-.65,0a4.238,4.238,0,1,0-4.238,4.28,4.184,4.184,0,0,0,4.238-4.28" transform="translate(-305.367 -155.183)"/>
        <path id="Path_4865" data-name="Path 4865" class="cls-2" d="M470.141,189.948v-9.521l7.911,8.278v-8.179h.622v9.662l-7.911-8.278v8.038Z" transform="translate(-404.821 -155.359)"/>
        <path id="Path_4866" data-name="Path 4866" class="cls-2" d="M580.355,190.561v-9.422h1.865a4.757,4.757,0,0,1,3.475,1.314,4.934,4.934,0,0,1,0,6.795,4.757,4.757,0,0,1-3.475,1.314Zm.622-.565h1.229a4.146,4.146,0,1,0,0-8.292h-1.229Z" transform="translate(-499.722 -155.972)"/>
        <path id="Path_4867" data-name="Path 4867" class="cls-2" d="M674.836,181.948a2.014,2.014,0,0,0-1.851-1.158,1.675,1.675,0,0,0-1.752,1.752c0,1.017.706,1.356,1.653,1.822a13.269,13.269,0,0,1,1.879.989,2.071,2.071,0,0,1,1,1.822,2.82,2.82,0,0,1-2.938,2.755,2.692,2.692,0,0,1-2.19-.989,3.09,3.09,0,0,1-.607-1.031l.537-.254a3.254,3.254,0,0,0,.509.9,2.265,2.265,0,0,0,1.766.805,2.191,2.191,0,0,0,2.274-2.175,1.658,1.658,0,0,0-.918-1.483c-.269-.155-.819-.438-1.6-.819a3.545,3.545,0,0,1-1.723-1.243,2.025,2.025,0,0,1-.3-1.074A2.289,2.289,0,0,1,673,180.224a2.525,2.525,0,0,1,2.288,1.342Z" transform="translate(-576.94 -155.184)"/>
        <path id="Path_4868" data-name="Path 4868" class="cls-4" d="M159.3,22.386A11.193,11.193,0,1,1,170.5,11.194,11.205,11.205,0,0,1,159.3,22.386m0-22a10.809,10.809,0,1,0,10.809,10.809A10.821,10.821,0,0,0,159.3.385" transform="translate(-127.534 -0.001)"/>
        <path id="Path_4869" data-name="Path 4869" class="cls-4" d="M228.251,19.184l-.887,4.18.076,3.724.912-3.648Z" transform="translate(-195.775 -16.519)"/>
        <path id="Path_4870" data-name="Path 4870" class="cls-4" d="M226.833,23.165l-.089-4.378,1.041-4.909.119,5Zm.083-4.362.063,3.07.753-3.011-.084-3.509Z" transform="translate(-195.241 -11.95)"/>
        <path id="Path_4871" data-name="Path 4871" class="cls-4" d="M236.795,40.821l-.236,1.488.095,1.31.254-1.3Z" transform="translate(-203.692 -35.149)"/>
        <path id="Path_4872" data-name="Path 4872" class="cls-4" d="M236.078,39.682l-.142-1.962.352-2.224.17,2.241Zm.031-1.955.048.657.129-.657-.057-.752Z" transform="translate(-203.156 -30.564)"/>
        <path id="Path_4873" data-name="Path 4873" class="cls-4" d="M239.021,45.472l-1.083,1.047-.712,1.1.986-.887Z" transform="translate(-204.266 -39.154)"/>
        <path id="Path_4874" data-name="Path 4874" class="cls-4" d="M234.193,44.567l1.073-1.66,1.612-1.558-1.221,1.9Zm1.2-1.543-.357.554.5-.448.407-.635Z" transform="translate(-201.655 -35.604)"/>
        <path id="Path_4875" data-name="Path 4875" class="cls-4" d="M247.93,55.037l-1.143.981-.776,1.06,1.036-.827Z" transform="translate(-211.831 -47.391)"/>
        <path id="Path_4876" data-name="Path 4876" class="cls-4" d="M242.771,54.174l1.17-1.594,1.7-1.461-1.331,1.826Zm1.289-1.47-.389.531.523-.418.443-.61Z" transform="translate(-209.041 -44.018)"/>
        <path id="Path_4877" data-name="Path 4877" class="cls-4" d="M248.763,66.28l-1.5.1-1.257.38,1.325-.038Z" transform="translate(-211.824 -57.071)"/>
        <path id="Path_4878" data-name="Path 4878" class="cls-4" d="M241.385,66.036l1.893-.57,2.237-.144-2.161.659Zm1.914-.4-.631.191.669-.019.721-.221Z" transform="translate(-207.848 -56.246)"/>
        <path id="Path_4879" data-name="Path 4879" class="cls-4" d="M252.314,78.019l-1.494.195-1.229.461,1.32-.124Z" transform="translate(-214.913 -67.179)"/>
        <path id="Path_4880" data-name="Path 4880" class="cls-4" d="M245.031,77.7l1.852-.692,2.223-.29-2.114.8Zm1.884-.523-.617.231.667-.063.7-.267Z" transform="translate(-210.987 -66.062)"/>
        <path id="Path_4881" data-name="Path 4881" class="cls-4" d="M252.163,83.838l-1.311-.743-1.26-.371,1.129.695Z" transform="translate(-214.915 -71.231)"/>
        <path id="Path_4882" data-name="Path 4882" class="cls-4" d="M249.165,82.487,247,81.853l-1.678-1.032,1.9.56Zm-2.088-.786.724.21-.662-.376-.632-.186Z" transform="translate(-211.235 -69.592)"/>
        <path id="Path_4883" data-name="Path 4883" class="cls-4" d="M246.154,94.939l-1.328-.712-1.268-.341,1.145.668Z" transform="translate(-209.719 -80.842)"/>
        <path id="Path_4884" data-name="Path 4884" class="cls-4" d="M243.124,93.659l-2.183-.582-1.7-.993,1.909.516Zm-2.106-.737.728.193-.671-.36-.636-.171Z" transform="translate(-206 -79.29)"/>
        <path id="Path_4885" data-name="Path 4885" class="cls-4" d="M245.01,96.276l-.633-1.367-.808-1.035.513,1.222Z" transform="translate(-209.728 -80.831)"/>
        <path id="Path_4886" data-name="Path 4886" class="cls-4" d="M243.359,93.433l-1.394-1.778-.763-1.816,1.215,1.559Zm-1.24-1.855.466.593-.32-.691-.406-.519Z" transform="translate(-207.69 -77.357)"/>
        <path id="Path_4887" data-name="Path 4887" class="cls-4" d="M234.16,102.875l-.586-1.388-.772-1.062.471,1.239Z" transform="translate(-200.457 -86.472)"/>
        <path id="Path_4888" data-name="Path 4888" class="cls-4" d="M232.608,99.975l-1.332-1.825-.7-1.842,1.161,1.6Zm-1.176-1.9.445.608-.3-.7-.387-.533Z" transform="translate(-198.539 -82.928)"/>
        <path id="Path_4889" data-name="Path 4889" class="cls-4" d="M230.022,103.2l.367-1.461.022-1.313-.369,1.273Z" transform="translate(-198.063 -86.469)"/>
        <path id="Path_4890" data-name="Path 4890" class="cls-4" d="M229.333,99.944l.033-2.259.548-1.892-.035,1.977Zm.2-2.222-.01.754.185-.738.011-.659Z" transform="translate(-197.47 -82.484)"/>
        <path id="Path_4891" data-name="Path 4891" class="cls-4" d="M217.367,103.073l.313-1.474-.026-1.313-.322,1.286Z" transform="translate(-187.136 -86.353)"/>
        <path id="Path_4892" data-name="Path 4892" class="cls-4" d="M216.764,99.809l-.053-2.247.481-1.922.04,1.967Zm.12-2.228.018.754.158-.745-.013-.659Z" transform="translate(-186.602 -82.351)"/>
        <path id="Path_4893" data-name="Path 4893" class="cls-4" d="M205.955,102.347l1.136-.989.768-1.065-1.031.834Z" transform="translate(-177.34 -86.359)"/>
        <path id="Path_4894" data-name="Path 4894" class="cls-4" d="M202.367,99.967l1.319-1.835,1.531-1.239-1.159,1.6Zm1.436-1.708-.439.613.574-.5.386-.534Z" transform="translate(-174.251 -83.431)"/>
        <path id="Path_4895" data-name="Path 4895" class="cls-4" d="M186.507,79.3l1.5-.126,1.249-.4-1.324.063Z" transform="translate(-160.594 -67.826)"/>
        <path id="Path_4896" data-name="Path 4896" class="cls-4" d="M181.285,78.726l2.148-.7,1.968-.094-1.882.607Zm2.168-.529-.717.235.759-.063.627-.2Z" transform="translate(-156.098 -67.104)"/>
        <path id="Path_4897" data-name="Path 4897" class="cls-4" d="M188.19,69.93l1.275.8,1.241.428-1.1-.746Z" transform="translate(-162.043 -60.214)"/>
        <path id="Path_4898" data-name="Path 4898" class="cls-4" d="M187.145,69.477l-1.868-.647-1.9-1.194,2.137.732Zm-1.785-.8.623.215-.554-.377-.714-.243Z" transform="translate(-157.902 -58.239)"/>
        <path id="Path_4899" data-name="Path 4899" class="cls-4" d="M194.3,93.7l1.2-.914.835-1.013-1.082.766Z" transform="translate(-167.308 -79.025)"/>
        <path id="Path_4900" data-name="Path 4900" class="cls-4" d="M190.473,91.477l1.434-1.746,1.608-1.138-1.259,1.524Zm1.542-1.612-.478.583.605-.462.419-.508Z" transform="translate(-164.009 -76.284)"/>
        <path id="Path_4901" data-name="Path 4901" class="cls-4" d="M188.912,91.868l1.507-.01,1.277-.307-1.325-.039Z" transform="translate(-162.665 -78.798)"/>
        <path id="Path_4902" data-name="Path 4902" class="cls-4" d="M183.624,91.425l2.184-.533h.012l1.969.058-1.923.46Zm2.2-.361-.732.179.761,0,.641-.154Z" transform="translate(-158.112 -78.264)"/>
        <path id="Path_4903" data-name="Path 4903" class="cls-4" d="M193.412,58.064l1.309.745,1.259.373-1.128-.7Z" transform="translate(-166.54 -49.997)"/>
        <path id="Path_4904" data-name="Path 4904" class="cls-4" d="M192.349,57.657l-1.895-.563-1.949-1.108,2.168.636Zm-1.819-.717.632.187-.57-.352-.724-.211Z" transform="translate(-162.315 -48.207)"/>
        <path id="Path_4905" data-name="Path 4905" class="cls-4" d="M201.953,48.575l.6,1.383.782,1.055-.482-1.235Z" transform="translate(-173.894 -41.826)"/>
        <path id="Path_4906" data-name="Path 4906" class="cls-4" d="M201.348,47.61l-1.176-1.59-.891-2.058,1.349,1.812Zm-1.022-1.667.392.529-.244-.624-.451-.6Z" transform="translate(-171.594 -37.854)"/>
        <path id="Path_4907" data-name="Path 4907" class="cls-4" d="M212.981,41.255l.6,1.38.786,1.052-.487-1.233Z" transform="translate(-183.39 -35.523)"/>
        <path id="Path_4908" data-name="Path 4908" class="cls-4" d="M212.373,40.292l-1.181-1.586-.9-2.054,1.355,1.807Zm-1.027-1.664.394.528-.246-.623-.453-.6Z" transform="translate(-181.076 -31.56)"/>
        <path id="Path_4909" data-name="Path 4909" class="cls-4" d="M223.313,38.766l-.348,1.466-.005,1.313.353-1.278Z" transform="translate(-191.982 -33.38)"/>
        <path id="Path_4910" data-name="Path 4910" class="cls-4" d="M222.323,37.631l.01-1.977.518-2.181,0,2.259Zm.18-1.947,0,.659.178-.646v-.753Z" transform="translate(-191.434 -28.821)"/>
        <path id="Path_4911" data-name="Path 4911" class="cls-4" d="M221.645,92.9l.859-4.186-.1-3.723-.888,3.654Z" transform="translate(-190.739 -73.179)"/>
        <path id="Path_4912" data-name="Path 4912" class="cls-4" d="M221.046,89.626l-.152-5,1.043-4.291.118,4.378,0,.01Zm.021-4.984.107,3.508.709-3.455-.083-3.069Z" transform="translate(-190.204 -69.172)"/>
        <path id="Path_4913" data-name="Path 4913" class="cls-4" d="M187.125,90.111l3.183-2.85,2.137-3.05-2.89,2.406Z" transform="translate(-161.126 -72.511)"/>
        <path id="Path_4914" data-name="Path 4914" class="cls-4" d="M183.593,87.7l2.867-4.116,3.385-2.818-2.52,3.593Zm2.986-3.991-2,2.881,2.628-2.353,1.762-2.514Z" transform="translate(-158.085 -69.546)"/>
        <path id="Path_4915" data-name="Path 4915" class="cls-4" d="M235.971,34.3l-3.165,2.871-2.117,3.065,2.874-2.425Z" transform="translate(-198.637 -29.532)"/>
        <path id="Path_4916" data-name="Path 4916" class="cls-4" d="M227.542,37.256l2.5-3.609,3.709-3.365-2.839,4.135Zm2.619-3.489-1.745,2.526,2.372-2,1.985-2.895Z" transform="translate(-195.928 -26.074)"/>
        <path id="Path_4917" data-name="Path 4917" class="cls-4" d="M197.685,26.884l1.658,3.938,2.188,3.014L200.2,30.32Z" transform="translate(-170.219 -23.149)"/>
        <path id="Path_4918" data-name="Path 4918" class="cls-4" d="M199.58,30.414,197,26.862l-1.944-4.616,2.958,4.05Zm-2.422-3.629,1.8,2.485-1.1-2.9-2.072-2.833Z" transform="translate(-167.959 -19.155)"/>
        <path id="Path_4919" data-name="Path 4919" class="cls-4" d="M234.349,91.17l-1.684-3.927-2.208-3,1.357,3.507Z" transform="translate(-198.438 -72.539)"/>
        <path id="Path_4920" data-name="Path 4920" class="cls-4" d="M232.779,88.279l-2.985-4.03-1.589-4.108,2.6,3.536Zm-2.828-4.1,2.09,2.819-1.39-3.242-1.82-2.473Z" transform="translate(-196.499 -69.006)"/>
        <path id="Path_4921" data-name="Path 4921" class="cls-4" d="M171.62,55.85l3.688,2.157,3.559,1.1-3.175-2.014Z" transform="translate(-147.775 -48.09)"/>
        <path id="Path_4922" data-name="Path 4922" class="cls-4" d="M175.253,57.539l-4.192-1.3-4.323-2.529,4.8,1.468Zm-4.114-1.452,2.933.907-2.621-1.663-3.357-1.025Z" transform="translate(-143.572 -46.249)"/>
        <path id="Path_4923" data-name="Path 4923" class="cls-4" d="M239.506,85.319l-3.7-2.133-3.566-1.077,3.188,1.993Z" transform="translate(-199.971 -70.701)"/>
        <path id="Path_4924" data-name="Path 4924" class="cls-4" d="M236.517,83.946l-4.805-1.436-3.735-2.335,4.2,1.271Zm-4.724-1.588,3.364,1L232.1,81.6l-2.939-.888Z" transform="translate(-196.302 -69.036)"/>
        <path id="Path_4925" data-name="Path 4925" class="cls-4" d="M167.575,83.438l4.26-.334,3.55-1.128-3.757.159Z" transform="translate(-144.292 -70.586)"/>
        <path id="Path_4926" data-name="Path 4926" class="cls-4" d="M162.345,82.879l4.776-1.532,4.4-.187-4.183,1.327Zm4.795-1.361L163.8,82.593l3.517-.276,2.926-.93Z" transform="translate(-139.789 -69.884)"/>
        <path id="Path_4927" data-name="Path 4927" class="cls-4" d="M240.135,68.558l-4.257.362-3.542,1.152,3.756-.184Z" transform="translate(-200.055 -59.033)"/>
        <path id="Path_4928" data-name="Path 4928" class="cls-4" d="M227.732,69.272l4.174-1.355,4.99-.425-4.765,1.564Zm4.2-1.184-2.92.949,3.1-.152,3.334-1.1Z" transform="translate(-196.091 -58.115)"/>
        <rect id="Rectangle_2092" data-name="Rectangle 2092" class="cls-2" width="1.488" height="20.709" transform="translate(64.305 0.873)"/>
        <path id="Path_4929" data-name="Path 4929" class="cls-2" d="M493.888,26.991V7.544h-7.021V6.282h8.445V26.991Zm2.524-20.709h5.922V7.544h-5.922Z" transform="translate(-419.223 -5.409)"/>
      </g>
    </g>
  </g>
</svg>
