<svg xmlns="http://www.w3.org/2000/svg" width="79.591" height="19.104" viewBox="0 0 79.591 19.104">
  <g id="Group_10780" data-name="Group 10780" transform="translate(-618 -9.896)">
    <g id="Group_10779" data-name="Group 10779" transform="translate(388 -45.58)">
      <path id="Path_7224" data-name="Path 7224" d="M5.373-.378V-2.763H3.366v.81H4.32V-.9a2.267,2.267,0,0,1-1.044.225,1.81,1.81,0,0,1-1.845-1.98,1.82,1.82,0,0,1,1.908-1.98,2.677,2.677,0,0,1,1.809.666v-1a3.372,3.372,0,0,0-1.917-.549A2.794,2.794,0,0,0,.288-2.7,2.775,2.775,0,0,0,3.159.153,5.532,5.532,0,0,0,5.373-.378Zm6.6-2.115V-5.4H10.9v2.871c0,1.17-.5,1.737-1.386,1.737S8.127-1.359,8.127-2.529V-5.4H7.011v2.907A2.342,2.342,0,0,0,9.495.153,2.336,2.336,0,0,0,11.97-2.493ZM18.18,0l-2.3-5.4H15.03L12.735,0H13.8l.549-1.332h2.187L17.082,0ZM16.236-2.1H14.643l.8-1.962Zm5.94-.171a1.472,1.472,0,0,0,1.08-1.5A1.6,1.6,0,0,0,21.429-5.4H19.305V0h1.1V-2.151h.675L22.572,0h1.206ZM20.4-4.617h.846c.684,0,.927.369.927.855s-.243.837-.927.837H20.4ZM29.9,0,27.6-5.4h-.855L24.453,0h1.062l.549-1.332h2.187L28.8,0ZM27.954-2.1H26.361l.8-1.962ZM35.6,0V-5.4h-.981v3.564L31.788-5.4h-.765V0H32V-3.564L34.83,0Zm5.9-4.545V-5.4H36.738v.855h1.827V0h1.1V-4.545ZM46.152,0V-.855H43.731V-2.421H45.7v-.855H43.731V-4.545h2.421V-5.4H42.633V0Zm4.995,0V-.855H48.726V-2.421H50.7v-.855H48.726V-4.545h2.421V-5.4H47.628V0Zm6.444-2.7c0-1.485-.909-2.7-3.069-2.7h-1.9V0h1.9C56.682,0,57.591-1.215,57.591-2.7Zm-1.125,0c0,1.08-.522,1.818-2,1.818h-.747V-4.518h.747C55.944-4.518,56.466-3.78,56.466-2.7Z" transform="translate(252 68.58)"/>
    </g>
    <g id="Group_1419" data-name="Group 1419" transform="translate(276.419 -233.311)">
      <g id="Group_1397" data-name="Group 1397" transform="translate(279.087 -171.408)">
        <path id="Path_5072" data-name="Path 5072" d="M82.1,431.482c.406-.34.108-1.387.446-1.791s1.421-.292,1.688-.748c.187-.323-.078-.859-.185-1.322a.945.945,0,0,1-.008-.513c.18-.491,1.237-.757,1.332-1.283.088-.511-.813-1.121-.813-1.657s.9-1.147.813-1.66-1.151-.791-1.332-1.28.456-1.383.193-1.838-1.348-.343-1.688-.746-.04-1.452-.446-1.791-1.383.136-1.842-.132-.53-1.35-1.029-1.531-1.247.6-1.774.509-.955-1.084-1.493-1.084-.981.993-1.492,1.084-1.283-.688-1.774-.509-.576,1.268-1.03,1.531-1.437-.208-1.842.132-.105,1.387-.446,1.791-1.421.289-1.686.746.373,1.337.191,1.838-1.237.753-1.33,1.28.813,1.123.813,1.66-.9,1.146-.813,1.657,1.151.792,1.33,1.283a.935.935,0,0,1-.007.513c-.108.463-.373,1-.184,1.322.266.457,1.35.345,1.686.748s.043,1.451.446,1.791,1.383-.136,1.842.129a1.167,1.167,0,0,1,.4.565c.174.4.322.853.63.969.492.179,1.249-.6,1.774-.512s.955,1.086,1.492,1.086.981-.995,1.493-1.086c.528-.091,1.285.69,1.774.512.308-.116.455-.572.631-.969a1.165,1.165,0,0,1,.4-.565C80.719,431.346,81.7,431.821,82.1,431.482Zm-2.791-.178a7.874,7.874,0,1,1,4.133-4.65h0a7.9,7.9,0,0,1-4.13,4.646Z" transform="translate(-4.052)"/>
        <path id="Path_5073" data-name="Path 5073" d="M85.369,427.022a6.7,6.7,0,1,0-3.979,6.111A6.682,6.682,0,0,0,85.369,427.022Z" transform="translate(-6.77 -2.854)"/>
      </g>
      <g id="Group_1405" data-name="Group 1405" transform="translate(347.258 249.281)">
        <g id="Group_1309" data-name="Group 1309">
          <g id="Group_1308" data-name="Group 1308">
            <path id="Path_5024" data-name="Path 5024" d="M2492.133,2374.281l.883,2.717h2.858l-2.311,1.683.883,2.717-2.312-1.68-2.314,1.68.882-2.717L2488.39,2377h2.858Z" transform="translate(-2488.39 -2374.281)" fill="#fff"/>
          </g>
        </g>
      </g>
    </g>
  </g>
</svg>
