<svg xmlns="http://www.w3.org/2000/svg" width="249.662" height="30.294" viewBox="0 0 249.662 30.294">
  <g id="Group_10814" data-name="Group 10814" transform="translate(-4920.338 -10853)">
    <g id="Group_10797" data-name="Group 10797" transform="translate(18.338 6.097)">
      <path id="Trazado_3" d="M29.258,11.787l7.858-7.858L34.725,0H23.792L21.4,3.929Z" transform="translate(4892.786 10846.903)" fill="#707070"/>
      <path id="Trazado_4" d="M26.707,19.119A20.045,20.045,0,0,0,1.139,31.248,20.9,20.9,0,0,0,0,38.025H3.132A16.914,16.914,0,0,1,20.044,21.112a15.978,15.978,0,0,1,5.865,1.082,7.924,7.924,0,0,1,.8-3.075Z" transform="translate(4902 10839.173)" fill="#707070"/>
      <path id="Trazado_5" d="M60.9,37.31a17.066,17.066,0,0,1,2.278,8.485H66.31A20.267,20.267,0,0,0,63.747,36,7.633,7.633,0,0,1,60.9,37.31Z" transform="translate(4875.779 10831.403)" fill="#707070"/>
      <path id="Elipse_2" d="M52.086,11.8A8.029,8.029,0,1,1,44,19.829,8.105,8.105,0,0,1,52.086,11.8Zm0,14.464a6.435,6.435,0,1,0-6.435-6.435h0a6.428,6.428,0,0,0,6.435,6.435Z" transform="translate(4883.055 10841.823)" fill="#707070"/>
      <path id="Trazado_6" d="M56.316,22.76h-.057a1.041,1.041,0,0,1-.854-.74c-.228-1.025-1.993-3.531-3.075-4.84a.93.93,0,1,1,1.424-1.2h0a27.841,27.841,0,0,1,2.562,3.644A26.885,26.885,0,0,1,58.2,16.61,19.917,19.917,0,0,1,61.84,12.68a15.64,15.64,0,0,1,5.353-3.018.955.955,0,0,1,.569,1.822,16.579,16.579,0,0,0-8.029,6.264A22.317,22.317,0,0,0,57.171,22.3,1.133,1.133,0,0,1,56.316,22.76Z" transform="translate(4879.565 10842.765)" fill="#707070"/>
    </g>
    <g id="Group_10796" data-name="Group 10796" transform="translate(4973.049 10862)">
      <path id="Path_7285" data-name="Path 7285" d="M87.3,33.819V22.1h2.36v9.848h5.29v1.872Z" transform="translate(-87.3 -22.1)" fill="#707070"/>
      <path id="Path_7286" data-name="Path 7286" d="M100.4,33.819V22.1h2.36V33.819Z" transform="translate(-89.739 -22.1)" fill="#707070"/>
      <path id="Path_7287" data-name="Path 7287" d="M110.66,23.972V26.82h4.151v1.872H110.66V33.9H108.3V22.1h7.487v1.872Z" transform="translate(-91.209 -22.1)" fill="#707070"/>
      <path id="Path_7288" data-name="Path 7288" d="M121.2,33.819V22.1h7.65v1.872h-5.29v2.767h4.313v1.79H123.56v3.418h5.29v1.872Z" transform="translate(-93.611 -22.1)" fill="#707070"/>
      <path id="Path_7289" data-name="Path 7289" d="M140.048,23.972v9.848h-2.36V23.972H133.7V22.1h10.336v1.872Z" transform="translate(-95.937 -22.1)" fill="#707070"/>
      <path id="Path_7290" data-name="Path 7290" d="M150.1,33.819V22.1h2.36V33.819Z" transform="translate(-98.99 -22.1)" fill="#707070"/>
      <path id="Path_7291" data-name="Path 7291" d="M168.5,33.819V26.658c0-.244.081-1.058.081-1.139l-.407,1.139L165,33.819h-1.465l-3.174-7.162a9.87,9.87,0,0,1-.407-1.139c0,.081.081.814.081,1.139v7.162H158V22.1h2.523l3.906,8.545,3.825-8.545H170.7V33.819Z" transform="translate(-100.461 -22.1)" fill="#707070"/>
      <path id="Path_7292" data-name="Path 7292" d="M178.6,33.819V22.1h7.65v1.872h-5.29v2.767h4.313v1.79H180.96v3.418h5.29v1.872Z" transform="translate(-104.296 -22.1)" fill="#707070"/>
      <path id="Path_7293" data-name="Path 7293" d="M209.715,33.819h-1.709l-2.36-7a7.881,7.881,0,0,1-.244-.9s-.163.651-.244.9l-2.36,7h-1.709L197.1,22.1h2.36l2.36,7.325a9.073,9.073,0,0,1,.244,1.058l.326-1.058,2.279-7.325h1.709l2.279,7.325c.081.244.244,1.058.244,1.058s.163-.814.244-1.058l2.36-7.325h2.279Z" transform="translate(-107.74 -22.1)" fill="#707070"/>
      <path id="Path_7294" data-name="Path 7294" d="M227.441,33.819l-1.221-2.93H221.5l-1.221,2.93H218L222.964,22.1h1.872L229.8,33.819Zm-3.5-8.79-1.709,4.232h3.418Z" transform="translate(-111.63 -22.1)" fill="#707070"/>
      <path id="Path_7295" data-name="Path 7295" d="M245.885,33.819h-2.6l-3.255-4.639H238.56v4.639H236.2V22.1h4.639c2.767,0,3.988,1.628,3.988,3.5a3.166,3.166,0,0,1-2.36,3.255Zm-7.325-6.348h1.872c1.465,0,2.035-.814,2.035-1.79,0-1.058-.488-1.872-2.035-1.872H238.56Z" transform="translate(-115.018 -22.1)" fill="#707070"/>
      <path id="Path_7296" data-name="Path 7296" d="M261.585,33.819h-2.6l-3.255-4.639H254.26v4.639H251.9V22.1h4.639c2.767,0,3.988,1.628,3.988,3.5a3.166,3.166,0,0,1-2.36,3.255Zm-7.325-6.348h1.872c1.465,0,2.035-.814,2.035-1.79,0-1.058-.488-1.872-2.035-1.872H254.26Z" transform="translate(-117.941 -22.1)" fill="#707070"/>
      <path id="Path_7297" data-name="Path 7297" d="M275.641,33.819l-1.221-2.93H269.7l-1.221,2.93H266.2L271.164,22.1h1.872L278,33.819Zm-3.581-8.79-1.709,4.232h3.418Z" transform="translate(-120.603 -22.1)" fill="#707070"/>
      <path id="Path_7298" data-name="Path 7298" d="M292.62,33.819l-6.1-7.732v7.732H284.4V22.1h1.628l6.1,7.732V22.1h2.116V33.819Z" transform="translate(-123.991 -22.1)" fill="#707070"/>
      <path id="Path_7299" data-name="Path 7299" d="M306.529,23.972v9.848h-2.442V23.972H300.1V22.1h10.336v1.872Z" transform="translate(-126.913 -22.1)" fill="#707070"/>
      <path id="Path_7300" data-name="Path 7300" d="M321.918,29.1v4.72h-2.36V29.1L315,22.1h2.6l3.255,5.127,3.255-5.127h2.523Z" transform="translate(-129.687 -22.1)" fill="#707070"/>
    </g>
  </g>
</svg>
