<svg xmlns="http://www.w3.org/2000/svg" xmlns:xlink="http://www.w3.org/1999/xlink" version="1.1" id="Capa_1" x="0px" y="0px" viewBox="0 0 46.8 46.8" style="enable-background:new 0 0 46.8 46.8;" xml:space="preserve" width="46.8"  height="46.8" >
<style type="text/css">
	.st0{fill:#FFFFFF;}
</style>
<g id="Grupo_4" transform="translate(-663.595 -2442.095)">
	<g id="Icon_akar-calendar" transform="translate(662.095 2440.595)">
		<g id="Trazado_4">
			<path class="st0" d="M38,48.3H11.8C6.1,48.3,1.5,43.7,1.5,38V16.1c0-2.7,1.1-5.3,3-7.3s4.5-3,7.3-3h0H38     c5.7,0,10.3,4.6,10.3,10.3V38C48.3,43.7,43.7,48.3,38,48.3z M11.8,8.9C9.8,8.9,8,9.6,6.6,11c-1.4,1.4-2.1,3.2-2.1,5.1V38     c0,4,3.3,7.3,7.3,7.3H38c4,0,7.3-3.3,7.3-7.3V16.1c0-4-3.3-7.3-7.3-7.3H11.8z"/>
		</g>
		<g id="Trazado_5">
			<path class="st0" d="M46.8,22H3c-0.8,0-1.5-0.7-1.5-1.5S2.2,19,3,19h43.8c0.8,0,1.5,0.7,1.5,1.5S47.6,22,46.8,22z M33.7,13.3     c-0.8,0-1.5-0.7-1.5-1.5V3c0-0.8,0.7-1.5,1.5-1.5s1.5,0.7,1.5,1.5v8.8C35.2,12.6,34.5,13.3,33.7,13.3z M16.1,13.3     c-0.8,0-1.5-0.7-1.5-1.5V3c0-0.8,0.7-1.5,1.5-1.5s1.5,0.7,1.5,1.5v8.8C17.6,12.6,17,13.3,16.1,13.3z"/>
		</g>
	</g>
	<g id="Grupo_2">
		<rect id="Rectángulo_5" x="670" y="2465" class="st0" width="7" height="7"/>
		<rect id="Rectángulo_9" x="670" y="2474" class="st0" width="7" height="7"/>
		<rect id="Rectángulo_6" x="679" y="2465" class="st0" width="7" height="7"/>
		<rect id="Rectángulo_10" x="679" y="2474" class="st0" width="7" height="7"/>
		<rect id="Rectángulo_7" x="688" y="2465" class="st0" width="7" height="7"/>
		<rect id="Rectángulo_11" x="688" y="2474" class="st0" width="7" height="7"/>
		<rect id="Rectángulo_8" x="697" y="2465" class="st0" width="7" height="7"/>
	</g>
</g>
</svg>