<svg xmlns="http://www.w3.org/2000/svg" width="13.4" height="17.4" viewBox="0 0 13.4 17.4">
  <defs>
    <style>
      .cls-1 {
        fill: #272525;
        stroke: #272424;
        stroke-miterlimit: 10;
        stroke-width: 0.4px;
      }
    </style>
  </defs>
  <g id="Cart" transform="translate(0.2 0.2)">
    <path id="Path_23" data-name="Path 23" class="cls-1" d="M241.743,231.164H229.175a.22.22,0,0,1-.216-.225l1.253-11.667a.22.22,0,0,1,.216-.225h9.847a.221.221,0,0,1,.216.225l1.468,11.667A.22.22,0,0,1,241.743,231.164Zm-12.352-.449h12.136L240.06,219.5h-9.415Z" transform="translate(-228.959 -214.164)"/>
    <path id="Path_24" data-name="Path 24" class="cls-1" d="M240.6,215.1a.2.2,0,0,1-.2-.206v-1.834a2.684,2.684,0,1,0-5.368,0v1.887a.2.2,0,1,1-.407,0v-1.887a3.091,3.091,0,1,1,6.182,0V214.9A.2.2,0,0,1,240.6,215.1Z" transform="translate(-231.21 -209.935)"/>
  </g>
</svg>
