<svg xmlns:xlink="http://www.w3.org/1999/xlink" xmlns="http://www.w3.org/2000/svg" width="224" height="34" viewBox="0 0 224 34">
  <g id="Group_1960" data-name="Group 1960" transform="translate(9141 183.474)">
    <rect id="Rectangle_3032" data-name="Rectangle 3032" width="224" height="34" rx="17" transform="translate(-9141 -183.474)" fill="#fff"/>
    <g id="icons8-google" transform="translate(-9133.752 -175.629)">
      <path id="Path_5980" data-name="Path 5980" d="M22.011,11.313h-.733v-.038H13.094v3.638h5.139a5.461,5.461,0,1,1-1.52-5.893l2.572-2.572a9.085,9.085,0,1,0,2.9,6.647A9.156,9.156,0,0,0,22.011,11.313Z" transform="translate(-4 -4)" fill="#ffc107"/>
      <path id="Path_5981" data-name="Path 5981" d="M6.306,8.861l2.988,2.191a5.445,5.445,0,0,1,8.677-2.033l2.572-2.572A9.076,9.076,0,0,0,6.306,8.861Z" transform="translate(-5.257 -4)" fill="#ff3d00"/>
      <path id="Path_5982" data-name="Path 5982" d="M14.291,35.3a9.051,9.051,0,0,0,6.1-2.361l-2.815-2.382a5.442,5.442,0,0,1-8.413-2.508L6.195,30.339A9.087,9.087,0,0,0,14.291,35.3Z" transform="translate(-5.197 -17.117)" fill="#4caf50"/>
      <path id="Path_5983" data-name="Path 5983" d="M32.917,20.038h-.733V20H24v3.638h5.139a5.475,5.475,0,0,1-1.858,2.533h0L30.1,28.552a8.8,8.8,0,0,0,3-6.733A9.156,9.156,0,0,0,32.917,20.038Z" transform="translate(-14.906 -12.725)" fill="#1976d2"/>
    </g>
    <g id="trustpilot-2" transform="translate(-9109.757 -176.313)">
      <path id="Path_5984" data-name="Path 5984" d="M20.555,7.474H12.706L10.281,0,7.849,7.474,0,7.466,6.357,12.09,3.925,19.556l6.357-4.616,6.349,4.616L14.206,12.09Z" fill="#00b67a"/>
      <path id="Path_5985" data-name="Path 5985" d="M404.56,472.15l-.546-1.69-3.925,2.85Z" transform="translate(-389.809 -458.37)" fill="#005128"/>
    </g>
    <path id="Path_5986" data-name="Path 5986" d="M6.637.2,8.258,4l4.108.367a.331.331,0,0,1,.188.579h0L9.445,7.657l.919,4.023a.329.329,0,0,1-.25.4.339.339,0,0,1-.254-.047L6.326,9.918l-3.542,2.12a.33.33,0,0,1-.452-.113.323.323,0,0,1-.038-.245h0l.919-4.023L.1,4.944A.333.333,0,0,1,.07,4.477a.343.343,0,0,1,.236-.108L4.4,4,6.025.2A.329.329,0,0,1,6.458.03.325.325,0,0,1,6.637.2Z" transform="translate(-9080.419 -172.831)" fill="#ffb32c"/>
    <path id="Path_5987" data-name="Path 5987" d="M6.637.2,8.258,4l4.108.367a.331.331,0,0,1,.188.579h0L9.445,7.657l.919,4.023a.329.329,0,0,1-.25.4.339.339,0,0,1-.254-.047L6.326,9.918l-3.542,2.12a.33.33,0,0,1-.452-.113.323.323,0,0,1-.038-.245h0l.919-4.023L.1,4.944A.333.333,0,0,1,.07,4.477a.343.343,0,0,1,.236-.108L4.4,4,6.025.2A.329.329,0,0,1,6.458.03.325.325,0,0,1,6.637.2Z" transform="translate(-9065.304 -172.831)" fill="#ffb32c"/>
    <path id="Path_5988" data-name="Path 5988" d="M6.637.2,8.258,4l4.108.367a.331.331,0,0,1,.188.579h0L9.445,7.657l.919,4.023a.329.329,0,0,1-.25.4.339.339,0,0,1-.254-.047L6.326,9.918l-3.542,2.12a.33.33,0,0,1-.452-.113.323.323,0,0,1-.038-.245h0l.919-4.023L.1,4.944A.333.333,0,0,1,.07,4.477a.343.343,0,0,1,.236-.108L4.4,4,6.025.2A.329.329,0,0,1,6.458.03.325.325,0,0,1,6.637.2Z" transform="translate(-9050.188 -172.831)" fill="#ffb32c"/>
    <path id="Path_5989" data-name="Path 5989" d="M6.637.2,8.258,4l4.108.367a.331.331,0,0,1,.188.579h0L9.445,7.657l.919,4.023a.329.329,0,0,1-.25.4.339.339,0,0,1-.254-.047L6.326,9.918l-3.542,2.12a.33.33,0,0,1-.452-.113.323.323,0,0,1-.038-.245h0l.919-4.023L.1,4.944A.333.333,0,0,1,.07,4.477a.343.343,0,0,1,.236-.108L4.4,4,6.025.2A.329.329,0,0,1,6.458.03.325.325,0,0,1,6.637.2Z" transform="translate(-9035.072 -172.831)" fill="#ffb32c"/>
    <path id="Path_5990" data-name="Path 5990" d="M6.637.2,8.258,4l4.108.367a.331.331,0,0,1,.188.579h0L9.445,7.657l.919,4.023a.329.329,0,0,1-.25.4.339.339,0,0,1-.254-.047L6.326,9.918l-3.542,2.12a.33.33,0,0,1-.452-.113.323.323,0,0,1-.038-.245h0l.919-4.023L.1,4.944A.333.333,0,0,1,.07,4.477a.343.343,0,0,1,.236-.108L4.4,4,6.025.2A.329.329,0,0,1,6.458.03.325.325,0,0,1,6.637.2Z" transform="translate(-9019.958 -172.831)" fill="#ffb32c"/>
  </g>
</svg>