<svg xmlns="http://www.w3.org/2000/svg" width="16.909" height="15.804" viewBox="0 0 16.909 15.804">
  <defs>
    <style>
      .cls-1 {
        fill: none;
        stroke: #272525;
        stroke-linecap: round;
        stroke-linejoin: round;
        stroke-width: 0.8px;
      }
    </style>
  </defs>
  <g id="whish_list" data-name="whish list" transform="translate(0.455 0.404)">
    <path id="Path_4710" data-name="Path 4710" class="cls-1" d="M21.037,18.854a3.692,3.692,0,0,1,3.247-3.763,4.362,4.362,0,0,1,4.34,2.949,6.358,6.358,0,0,1-1.089,6.314c-1.079,1.34-2.677,2-3.978,3.065a10.565,10.565,0,0,0-2.519,2.661,10.565,10.565,0,0,0-2.519-2.661c-1.3-1.068-2.9-1.725-3.978-3.065A6.352,6.352,0,0,1,13.45,18.04a4.362,4.362,0,0,1,4.34-2.949A3.692,3.692,0,0,1,21.037,18.854Z" transform="translate(-13.036 -15.081)"/>
  </g>
</svg>
