<svg id="Pin" xmlns="http://www.w3.org/2000/svg" width="12.429" height="17.756" viewBox="0 0 12.429 17.756">
  <defs>
    <style>
      .cls-1 {
        fill: none;
      }

      .cls-1, .cls-2 {
        stroke-miterlimit: 10;
      }

      .cls-2 {
        fill: #272525;
        stroke: #272525;
      }

      .cls-3, .cls-4 {
        stroke: none;
      }

      .cls-4 {
        fill: #272525;
      }
    </style>
  </defs>
  <g id="Oval_2" data-name="Oval 2" class="cls-1">
    <path class="cls-3" d="M6.215,17.756s6.215-6.215,6.215-11.838A6.072,6.072,0,0,0,6.215,0,6.072,6.072,0,0,0,0,5.919C0,11.542,6.215,17.756,6.215,17.756Z"/>
    <path class="cls-4" d="M 6.214728355407715 16.58500862121582 C 7.70653247833252 14.92887592315674 11.6294584274292 10.1690559387207 11.6294584274292 5.918792247772217 C 11.6294584274292 3.096282482147217 9.200418472290039 0.80000239610672 6.214728355407715 0.80000239610672 C 3.229038238525391 0.80000239610672 0.7999983429908752 3.096282482147217 0.7999983429908752 5.918792247772217 C 0.7999983429908752 10.1690559387207 4.72292423248291 14.92887592315674 6.214728355407715 16.58500862121582 M 6.214728355407715 17.75636291503906 C 6.214728355407715 17.75636291503906 -1.644592316552007e-06 11.54164218902588 -1.644592316552007e-06 5.918792247772217 C -1.644592316552007e-06 2.649932384490967 2.78242826461792 2.411193918305798e-06 6.214728355407715 2.411193918305798e-06 C 9.647027969360352 2.411193918305798e-06 12.42945861816406 2.649932384490967 12.42945861816406 5.918792247772217 C 12.42945861816406 11.54164218902588 6.214728355407715 17.75636291503906 6.214728355407715 17.75636291503906 Z"/>
  </g>
  <circle id="Oval_3" data-name="Oval 3" class="cls-2" cx="1.665" cy="1.665" r="1.665" transform="translate(4.55 4.55)"/>
</svg>
