<svg xmlns="http://www.w3.org/2000/svg" width="17.163" height="15.894" viewBox="0 0 17.163 15.894">
  <defs>
    <style>
      .cls-1 {
        fill: none;
        stroke: #272525;
        stroke-width: 0.8px;
      }
    </style>
  </defs>
  <path id="Path_4711" data-name="Path 4711" class="cls-1" d="M1.905,3.57c.014-.013.027-.025.039-.037L1.971,3.5A.292.292,0,0,0,2,3.465a2.006,2.006,0,0,1,.175-.211l.563-.6a2.253,2.253,0,0,1,3.082-.148l.955.827a2.028,2.028,0,0,1,.237,2.858c-.027.032-.054.063-.083.093l-.563.6h0a2.189,2.189,0,0,1-.986.6l-.172.05a.411.411,0,0,0-.265.225.387.387,0,0,0,.01.34l.08.153a11.2,11.2,0,0,0,6.017,5.287l.149.056a.436.436,0,0,0,.332-.009.41.41,0,0,0,.221-.237L11.8,13.2a2.048,2.048,0,0,1,.449-.734l.567-.6a2.253,2.253,0,0,1,3.081-.149l.955.827a2.03,2.03,0,0,1,.234,2.862c-.026.03-.052.06-.08.089l-.567.6a2.24,2.24,0,0,1-.543.418,3.357,3.357,0,0,1-1.98.389A13.967,13.967,0,0,1,1.321,5.992,2.575,2.575,0,0,1,1.905,3.57Z" transform="translate(-0.812 -1.435)"/>
</svg>
