<svg id="Question" xmlns="http://www.w3.org/2000/svg" width="18" height="18" viewBox="0 0 18 18">
  <defs>
    <style>
      .cls-1 {
        fill: #fff;
        stroke-width: 0.8px;
      }

      .cls-1, .cls-2 {
        stroke: #272525;
      }

      .cls-2 {
        fill: #272525;
      }

      .cls-3 {
        stroke: none;
      }

      .cls-4 {
        fill: none;
      }
    </style>
  </defs>
  <g id="Ellipse_1" data-name="Ellipse 1" class="cls-1">
    <circle class="cls-3" cx="9" cy="9" r="9"/>
    <circle class="cls-4" cx="9" cy="9" r="8.6"/>
  </g>
  <path id="Path_2038" data-name="Path 2038" class="cls-2" d="M3.363-3.622V-4.752H2.234v1.129ZM2.388-8.482v2.07h.821V-8.037L3.945-8.4c1.42-.7,2.618-1.643,2.618-3.2,0-1.745-1.557-2.549-3.165-2.549A4.7,4.7,0,0,0,.506-13.084v.89a4.58,4.58,0,0,1,2.789-1.112c1.317,0,2.31.565,2.31,1.762,0,1.027-.513,1.8-2.481,2.72Z" transform="translate(5.45 17.385)"/>
</svg>
