<svg xmlns="http://www.w3.org/2000/svg" width="21.365" height="18.644" viewBox="0 0 21.365 18.644">
  <defs>
    <style>
      .cls-1, .cls-3 {
        fill: none;
        stroke-linecap: round;
      }

      .cls-1 {
        stroke: #fff;
      }

      .cls-2 {
        fill: #fff;
      }

      .cls-4, .cls-5 {
        stroke: none;
      }

      .cls-5 {
        fill: #fff;
      }
    </style>
  </defs>
  <g id="Group_1616" data-name="Group 1616" transform="translate(0.5 0.5)">
    <path id="Rectangle_2025" data-name="Rectangle 2025" class="cls-1" d="M-8.185-10.5H7.551A2.317,2.317,0,0,1,9.865-8.185V2.748A2.317,2.317,0,0,1,7.551,5.063H-8.185A2.317,2.317,0,0,1-10.5,2.748V-8.185A2.317,2.317,0,0,1-8.185-10.5Z" transform="translate(10.5 10.5)"/>
    <path id="Line_115" data-name="Line 115" class="cls-2" d="M9.837-9.533H-10.5c.007,0,0-.216,0-.483V-10.5H9.837c.012.021,0,.216,0,.483S9.87-9.533,9.837-9.533Z" transform="translate(10.514 22.673)"/>
    <path id="Rectangle_2026" data-name="Rectangle 2026" class="cls-2" d="M-10.14-10.5h3.183a.36.36,0,0,1,.36.36v2.5a.36.36,0,0,1-.36.36H-10.14a.36.36,0,0,1-.36-.36v-2.5A.36.36,0,0,1-10.14-10.5Z" transform="translate(18.731 25.364)"/>
    <path id="Line_116" data-name="Line 116" class="cls-2" d="M-3.623-9.78H-10.14a.36.36,0,0,1-.36-.36.36.36,0,0,1,.36-.36h6.517a.36.36,0,0,1,.36.36A.36.36,0,0,1-3.623-9.78Z" transform="translate(17.064 27.924)"/>
    <path id="Ellipse_169" data-name="Ellipse 169" class="cls-1" d="M-8.114-11A2.889,2.889,0,0,1-5.229-8.114,2.889,2.889,0,0,1-8.114-5.229,2.889,2.889,0,0,1-11-8.114,2.889,2.889,0,0,1-8.114-11Z" transform="translate(18.297 13.349)"/>
    <g id="Path_4816" data-name="Path 4816" class="cls-3" transform="translate(-174.454 -220.83)">
      <path class="cls-4" d="M188.245,233.749h-7.218a.377.377,0,0,1-.377-.377c0-2.271,1.047-4.7,3.986-4.7s3.986,2.426,3.986,4.7A.377.377,0,0,1,188.245,233.749Z"/>
      <path class="cls-5" d="M 187.5914459228516 232.7485961914062 C 187.5115051269531 231.9583435058594 187.2780914306641 231.2625885009766 186.9146118164062 230.7481384277344 C 186.4039154052734 230.0253601074219 185.6586151123047 229.6740112304688 184.6361236572266 229.6740112304688 C 183.6136322021484 229.6740112304688 182.8683319091797 230.0253601074219 182.357666015625 230.7481384277344 C 181.9941864013672 231.2625732421875 181.7607727050781 231.9583435058594 181.6808319091797 232.7485961914062 L 187.5914459228516 232.7485961914062 M 188.2449645996094 233.7485961914062 C 188.0365600585938 233.7485961914062 181.2357025146484 233.7485961914062 181.0273132324219 233.7485961914062 C 180.8189392089844 233.7485961914062 180.6500091552734 233.5796356201172 180.6500091552734 233.3712768554688 C 180.6500091552734 231.1004638671875 181.6971588134766 228.6740112304688 184.6361236572266 228.6740112304688 C 187.5751037597656 228.6740112304688 188.6222686767578 231.1004638671875 188.6222686767578 233.3712768554688 C 188.6222686767578 233.5796356201172 188.4533386230469 233.7485961914062 188.2449645996094 233.7485961914062 Z"/>
    </g>
    <path id="Ellipse_170" data-name="Ellipse 170" class="cls-2" d="M.564,0A.564.564,0,1,1,0,.564.565.565,0,0,1,.564,0Z" transform="translate(16.792 2.511) rotate(-22.5)"/>
  </g>
</svg>
