<svg xmlns:xlink="http://www.w3.org/1999/xlink" xmlns="http://www.w3.org/2000/svg" width="22.786" height="15.649" viewBox="0 0 22.786 15.649">
  <g id="Group_1125" data-name="Group 1125" transform="translate(-38.09 -43.871)">
    <path id="Path_4774" data-name="Path 4774" d="M.618-3.586,1.294-.669,2.1-3.586h.527L3.442-.669l.676-2.917h.532L3.708,0H3.2L2.371-2.974,1.538,0h-.51L.09-3.586ZM5.042-3.6h.439v1.338a1.269,1.269,0,0,1,.281-.278.947.947,0,0,1,.53-.139.784.784,0,0,1,.771.4,1.357,1.357,0,0,1,.11.6V0H6.721V-1.648a.922.922,0,0,0-.073-.422A.468.468,0,0,0,6.2-2.285a.748.748,0,0,0-.5.188.9.9,0,0,0-.222.71V0H5.042ZM8.159-.7A.362.362,0,0,0,8.3-.4a.516.516,0,0,0,.33.11,1,1,0,0,0,.449-.107.6.6,0,0,0,.366-.583v-.354a.752.752,0,0,1-.208.085,1.768,1.768,0,0,1-.249.049l-.266.034a1.018,1.018,0,0,0-.359.1A.39.39,0,0,0,8.159-.7Zm1.064-.889a.239.239,0,0,0,.2-.127.386.386,0,0,0,.029-.168.357.357,0,0,0-.16-.326.858.858,0,0,0-.458-.1.582.582,0,0,0-.488.186.61.61,0,0,0-.1.305h-.41a.755.755,0,0,1,.314-.673,1.288,1.288,0,0,1,.7-.189A1.423,1.423,0,0,1,9.6-2.5a.6.6,0,0,1,.286.547V-.449a.193.193,0,0,0,.028.11.135.135,0,0,0,.118.042q.029,0,.066,0l.078-.011V.012a1.224,1.224,0,0,1-.156.037,1.142,1.142,0,0,1-.146.007A.361.361,0,0,1,9.541-.1a.622.622,0,0,1-.076-.242,1.118,1.118,0,0,1-.386.305,1.193,1.193,0,0,1-.554.129.824.824,0,0,1-.594-.221A.734.734,0,0,1,7.7-.686a.712.712,0,0,1,.227-.564,1.08,1.08,0,0,1,.6-.247Zm1.467-1.76h.444v.73h.417v.359h-.417V-.549a.185.185,0,0,0,.093.183.394.394,0,0,0,.171.027h.068l.085-.006V0A.981.981,0,0,1,11.4.032a1.5,1.5,0,0,1-.177.01A.477.477,0,0,1,10.8-.116a.7.7,0,0,1-.11-.409V-2.256h-.354v-.359h.354ZM12.253-.82a.639.639,0,0,0,.11.337.69.69,0,0,0,.576.212.85.85,0,0,0,.43-.106.353.353,0,0,0,.186-.328.281.281,0,0,0-.149-.256,1.771,1.771,0,0,0-.376-.125l-.349-.088a1.7,1.7,0,0,1-.493-.186.555.555,0,0,1-.283-.493.754.754,0,0,1,.267-.6,1.066,1.066,0,0,1,.719-.229,1,1,0,0,1,.852.347.752.752,0,0,1,.159.474h-.415a.508.508,0,0,0-.1-.271.67.67,0,0,0-.525-.173.627.627,0,0,0-.377.1.3.3,0,0,0-.128.251.31.31,0,0,0,.168.273,1.012,1.012,0,0,0,.288.107l.291.071a2.246,2.246,0,0,1,.635.222.588.588,0,0,1,.256.53.807.807,0,0,1-.265.6A1.128,1.128,0,0,1,12.917.1a1.083,1.083,0,0,1-.826-.265,1,1,0,0,1-.26-.656Zm4.138-.649-.544-1.584L15.269-1.47Zm-.8-2.117h.549L17.444,0h-.532l-.364-1.074H15.129L14.741,0h-.5ZM18.931-.3a.627.627,0,0,0,.511-.258,1.226,1.226,0,0,0,.2-.77,1.438,1.438,0,0,0-.09-.537.623.623,0,0,0-.625-.432.623.623,0,0,0-.625.457,1.809,1.809,0,0,0-.09.62,1.315,1.315,0,0,0,.09.515A.623.623,0,0,0,18.931-.3ZM17.793-2.6h.427v.347a1.067,1.067,0,0,1,.288-.276.927.927,0,0,1,.522-.146.982.982,0,0,1,.754.341,1.4,1.4,0,0,1,.31.973,1.494,1.494,0,0,1-.447,1.221,1.009,1.009,0,0,1-.659.232.9.9,0,0,1-.5-.129,1.142,1.142,0,0,1-.261-.251V1.042h-.439ZM21.711-.3a.627.627,0,0,0,.511-.258,1.226,1.226,0,0,0,.2-.77,1.438,1.438,0,0,0-.09-.537.623.623,0,0,0-.625-.432.623.623,0,0,0-.625.457,1.809,1.809,0,0,0-.09.62,1.315,1.315,0,0,0,.09.515A.623.623,0,0,0,21.711-.3ZM20.574-2.6H21v.347a1.067,1.067,0,0,1,.288-.276.927.927,0,0,1,.522-.146.982.982,0,0,1,.754.341,1.4,1.4,0,0,1,.31.973,1.494,1.494,0,0,1-.447,1.221,1.009,1.009,0,0,1-.659.232.9.9,0,0,1-.5-.129,1.142,1.142,0,0,1-.261-.251V1.042h-.439Z" transform="translate(38 58.478)"/>
    <g id="Group_1124" data-name="Group 1124">
      <g id="Group_1122" data-name="Group 1122" transform="translate(0.23 -8.534)">
        <path id="Icon_awesome-whatsapp" data-name="Icon awesome-whatsapp" d="M7.083,13.516a4.306,4.306,0,0,1-2.2-.6l-.157-.093L3.1,13.249l.435-1.592-.1-.164A4.321,4.321,0,1,1,11.444,9.2a4.361,4.361,0,0,1-4.362,4.314Z" transform="translate(42 48.019)" fill="none" stroke="#000" stroke-width="1"/>
        <path id="Icon_awesome-whatsapp-2" data-name="Icon awesome-whatsapp" d="M12.809,14.139c-.129-.065-.767-.379-.886-.421s-.206-.065-.292.065-.334.421-.411.51-.152.1-.28.033a3.529,3.529,0,0,1-1.765-1.543c-.133-.229.133-.213.381-.708a.24.24,0,0,0-.012-.227c-.033-.065-.292-.7-.4-.963s-.213-.217-.292-.222-.161,0-.248,0a.48.48,0,0,0-.346.161A1.457,1.457,0,0,0,7.8,11.9a2.54,2.54,0,0,0,.528,1.342A5.794,5.794,0,0,0,10.549,15.2a2.537,2.537,0,0,0,1.557.325,1.328,1.328,0,0,0,.874-.617,1.084,1.084,0,0,0,.075-.617C13.024,14.235,12.938,14.2,12.809,14.139Z" transform="translate(38.639 44.165)"/>
      </g>
    </g>
  </g>
</svg>