<svg xmlns:xlink="http://www.w3.org/1999/xlink" xmlns="http://www.w3.org/2000/svg" width="31.047" height="11.472" viewBox="0 0 31.047 11.472">
  <g id="Group_10688" data-name="Group 10688" transform="translate(0.1 0.1)">
    <g id="Group_10649" data-name="Group 10649" transform="translate(0 0)">
      <g id="Group_461" data-name="Group 461" transform="translate(0 2.882)">
        <g id="Group_460" data-name="Group 460" transform="translate(0 1.171)">
          <rect id="Rectangle_1559" data-name="Rectangle 1559" width="9.618" height="2.98" rx="1.052" fill="none" stroke="#000" stroke-miterlimit="10" stroke-width="0.2"/>
          <rect id="Rectangle_1560" data-name="Rectangle 1560" width="9.618" height="2.98" rx="1.052" transform="translate(21.228)" fill="none" stroke="#000" stroke-miterlimit="10" stroke-width="0.2"/>
        </g>
        <path id="Path_2044" data-name="Path 2044" d="M455.492,547.636l1.983.751.691,1.983-.661,1.953-1.983.841-1.983-.871-.721-1.923.751-1.953Z" transform="translate(-440.094 -547.636)" fill="none" stroke="#000" stroke-linecap="round" stroke-linejoin="round" stroke-width="0.2"/>
      </g>
      <g id="Group_462" data-name="Group 462" transform="translate(9.7)">
        <ellipse id="Ellipse_21" data-name="Ellipse 21" cx="1.033" cy="1.033" rx="1.033" ry="1.033" transform="translate(4.65)" fill="none" stroke="#000" stroke-miterlimit="10" stroke-width="0.2"/>
        <ellipse id="Ellipse_22" data-name="Ellipse 22" cx="1.033" cy="1.033" rx="1.033" ry="1.033" transform="translate(4.509 9.205)" fill="none" stroke="#000" stroke-miterlimit="10" stroke-width="0.2"/>
        <ellipse id="Ellipse_23" data-name="Ellipse 23" cx="1.033" cy="1.033" rx="1.033" ry="1.033" transform="translate(0 4.532)" fill="none" stroke="#000" stroke-miterlimit="10" stroke-width="0.2"/>
        <ellipse id="Ellipse_24" data-name="Ellipse 24" cx="1.033" cy="1.033" rx="1.033" ry="1.033" transform="translate(9.205 4.626)" fill="none" stroke="#000" stroke-miterlimit="10" stroke-width="0.2"/>
        <ellipse id="Ellipse_25" data-name="Ellipse 25" cx="1.033" cy="1.033" rx="1.033" ry="1.033" transform="translate(2.36 0.583)" fill="none" stroke="#000" stroke-miterlimit="10" stroke-width="0.2"/>
        <ellipse id="Ellipse_26" data-name="Ellipse 26" cx="1.033" cy="1.033" rx="1.033" ry="1.033" transform="translate(6.845 8.622)" fill="none" stroke="#000" stroke-miterlimit="10" stroke-width="0.2"/>
        <ellipse id="Ellipse_27" data-name="Ellipse 27" cx="1.033" cy="1.033" rx="1.033" ry="1.033" transform="translate(0.583 6.845)" fill="none" stroke="#000" stroke-miterlimit="10" stroke-width="0.2"/>
        <ellipse id="Ellipse_28" data-name="Ellipse 28" cx="1.033" cy="1.033" rx="1.033" ry="1.033" transform="translate(8.622 2.36)" fill="none" stroke="#000" stroke-miterlimit="10" stroke-width="0.2"/>
        <ellipse id="Ellipse_29" data-name="Ellipse 29" cx="1.033" cy="1.033" rx="1.033" ry="1.033" transform="translate(0.627 2.283)" fill="none" stroke="#000" stroke-miterlimit="10" stroke-width="0.2"/>
        <ellipse id="Ellipse_30" data-name="Ellipse 30" cx="1.033" cy="1.033" rx="1.033" ry="1.033" transform="translate(8.578 6.923)" fill="none" stroke="#000" stroke-miterlimit="10" stroke-width="0.2"/>
        <ellipse id="Ellipse_31" data-name="Ellipse 31" cx="1.033" cy="1.033" rx="1.033" ry="1.033" transform="translate(2.283 8.578)" fill="none" stroke="#000" stroke-miterlimit="10" stroke-width="0.2"/>
        <ellipse id="Ellipse_32" data-name="Ellipse 32" cx="1.033" cy="1.033" rx="1.033" ry="1.033" transform="translate(6.923 0.627)" fill="none" stroke="#000" stroke-miterlimit="10" stroke-width="0.2"/>
      </g>
    </g>
  </g>
</svg>