<svg xmlns:xlink="http://www.w3.org/1999/xlink" xmlns="http://www.w3.org/2000/svg" width="31.148" height="11.641" viewBox="0 0 31.148 11.641">
  <g id="Group_10687" data-name="Group 10687" transform="translate(0.1 0.1)">
    <g id="Group_10646" data-name="Group 10646" transform="translate(0 0)">
      <g id="Group_1968" data-name="Group 1968" transform="translate(0 0)">
        <g id="Capa_1" transform="translate(0 4.119)">
          <path id="Rectangle_1559_00000049942402600008723100000014533125507344290954_" d="M10.1,10.332H.829A.635.635,0,0,1,.2,9.7V7.929A.635.635,0,0,1,.829,7.3h9.325" transform="translate(-0.2 -7.3)" fill="none" stroke="#000" stroke-miterlimit="10" stroke-width="0.2"/>
          <path id="Rectangle_1559_00000062908552517936345430000008942137881472797842_" d="M36.9,7.3h9.325a.635.635,0,0,1,.629.629V9.7a.635.635,0,0,1-.629.629H36.957" transform="translate(-15.905 -7.3)" fill="none" stroke="#000" stroke-miterlimit="10" stroke-width="0.2"/>
        </g>
        <g id="Group_1931" data-name="Group 1931" transform="translate(9.725 0)">
          <ellipse id="Ellipse_13" cx="5.721" cy="5.721" rx="5.721" ry="5.721" transform="translate(0 0)" fill="none" stroke="#000" stroke-miterlimit="10" stroke-width="0.2"/>
          <line id="Line_10" y2="2.631" transform="translate(5.721 0)" fill="none" stroke="#000" stroke-miterlimit="10" stroke-width="0.2"/>
          <line id="Line_11" x1="1.659" y2="1.659" transform="translate(8.18 1.716)" fill="none" stroke="#000" stroke-miterlimit="10" stroke-width="0.2"/>
          <line id="Line_12" x2="2.689" transform="translate(8.81 5.721)" fill="none" stroke="#000" stroke-miterlimit="10" stroke-width="0.2"/>
          <line id="Line_13" x2="1.716" y2="1.716" transform="translate(8.123 7.952)" fill="none" stroke="#000" stroke-miterlimit="10" stroke-width="0.2"/>
          <line id="Line_14" y2="2.631" transform="translate(5.721 8.81)" fill="none" stroke="#000" stroke-miterlimit="10" stroke-width="0.2"/>
          <line id="Line_15" x1="1.831" y2="1.831" transform="translate(1.716 7.952)" fill="none" stroke="#000" stroke-miterlimit="10" stroke-width="0.2"/>
          <line id="Line_16" x1="2.689" transform="translate(0 5.721)" fill="none" stroke="#000" stroke-miterlimit="10" stroke-width="0.2"/>
          <line id="Line_17" x1="1.888" y1="1.831" transform="translate(1.659 1.659)" fill="none" stroke="#000" stroke-miterlimit="10" stroke-width="0.2"/>
          <path id="Path_2042" d="M24.946,4.4l2.345.915.8,2.345-.8,2.288-2.345.973-2.288-1.03L21.8,7.6l.858-2.288Z" transform="translate(-19.169 -1.94)" fill="none" stroke="#000" stroke-miterlimit="10" stroke-width="0.2"/>
        </g>
      </g>
    </g>
  </g>
</svg>