<svg xmlns:xlink="http://www.w3.org/1999/xlink" xmlns="http://www.w3.org/2000/svg" width="11.641" height="11.641" viewBox="0 0 11.641 11.641">
  <g id="Group_10794" data-name="Group 10794" transform="translate(-9.625 0.1)">
    <g id="Group_10646" data-name="Group 10646" transform="translate(0 0)">
      <g id="Group_1968" data-name="Group 1968" transform="translate(0 0)">
        <g id="Group_1931" data-name="Group 1931" transform="translate(9.725 0)">
          <ellipse id="Ellipse_13" cx="5.721" cy="5.721" rx="5.721" ry="5.721" transform="translate(0 0)" fill="none" stroke="#000" stroke-miterlimit="10" stroke-width="0.2"/>
          <line id="Line_10" y2="2.631" transform="translate(5.721 0)" fill="none" stroke="#000" stroke-miterlimit="10" stroke-width="0.2"/>
          <line id="Line_11" x1="1.659" y2="1.659" transform="translate(8.18 1.716)" fill="none" stroke="#000" stroke-miterlimit="10" stroke-width="0.2"/>
          <line id="Line_12" x2="2.689" transform="translate(8.81 5.721)" fill="none" stroke="#000" stroke-miterlimit="10" stroke-width="0.2"/>
          <line id="Line_13" x2="1.716" y2="1.716" transform="translate(8.123 7.952)" fill="none" stroke="#000" stroke-miterlimit="10" stroke-width="0.2"/>
          <line id="Line_14" y2="2.631" transform="translate(5.721 8.81)" fill="none" stroke="#000" stroke-miterlimit="10" stroke-width="0.2"/>
          <line id="Line_15" x1="1.831" y2="1.831" transform="translate(1.716 7.952)" fill="none" stroke="#000" stroke-miterlimit="10" stroke-width="0.2"/>
          <line id="Line_16" x1="2.689" transform="translate(0 5.721)" fill="none" stroke="#000" stroke-miterlimit="10" stroke-width="0.2"/>
          <line id="Line_17" x1="1.888" y1="1.831" transform="translate(1.659 1.659)" fill="none" stroke="#000" stroke-miterlimit="10" stroke-width="0.2"/>
          <path id="Path_2042" d="M24.946,4.4l2.345.915.8,2.345-.8,2.288-2.345.973-2.288-1.03L21.8,7.6l.858-2.288Z" transform="translate(-19.169 -1.94)" fill="none" stroke="#000" stroke-miterlimit="10" stroke-width="0.2"/>
        </g>
      </g>
    </g>
  </g>
</svg>