<svg xmlns:xlink="http://www.w3.org/1999/xlink" xmlns="http://www.w3.org/2000/svg" width="30.949" height="8.444" viewBox="0 0 30.949 8.444">
  <g id="Group_10695" data-name="Group 10695" transform="translate(0.1 0.1)">
    <g id="Group_10650" data-name="Group 10650" transform="translate(0 0)">
      <path id="Path_2045" data-name="Path 2045" d="M481.87,308.737h-4.378a4.092,4.092,0,0,0,0-2.93c-.007-.025,4.378,0,4.378,0a.356.356,0,0,1,.356.356v2.218A.356.356,0,0,1,481.87,308.737Z" transform="translate(-451.477 -303.067)" fill="none" stroke="#000" stroke-miterlimit="10" stroke-width="0.2"/>
      <path id="Path_2046" data-name="Path 2046" d="M424.985,305.8h4.378a4.092,4.092,0,0,0,0,2.93c.007.025-4.378,0-4.378,0a.356.356,0,0,1-.356-.356v-2.218A.356.356,0,0,1,424.985,305.8Z" transform="translate(-424.629 -303.067)" fill="none" stroke="#000" stroke-miterlimit="10" stroke-width="0.2"/>
      <g id="Group_464" data-name="Group 464" transform="translate(11.224)">
        <ellipse id="Ellipse_33" data-name="Ellipse 33" cx="4.122" cy="4.122" rx="4.122" ry="4.122" fill="none" stroke="#000" stroke-miterlimit="10" stroke-width="0.2"/>
        <line id="Line_26" data-name="Line 26" y2="1.905" transform="translate(4.122)" fill="none" stroke="#000" stroke-miterlimit="10" stroke-width="0.2"/>
        <line id="Line_27" data-name="Line 27" x1="1.199" y2="1.174" transform="translate(5.87 1.242)" fill="none" stroke="#000" stroke-miterlimit="10" stroke-width="0.2"/>
        <line id="Line_28" data-name="Line 28" x2="1.905" transform="translate(6.339 4.122)" fill="none" stroke="#000" stroke-miterlimit="10" stroke-width="0.2"/>
        <line id="Line_29" data-name="Line 29" x2="1.258" y2="1.258" transform="translate(5.819 5.71)" fill="none" stroke="#000" stroke-miterlimit="10" stroke-width="0.2"/>
        <line id="Line_30" data-name="Line 30" y2="1.905" transform="translate(4.122 6.339)" fill="none" stroke="#000" stroke-miterlimit="10" stroke-width="0.2"/>
        <line id="Line_31" data-name="Line 31" x1="1.322" y2="1.322" transform="translate(1.212 5.701)" fill="none" stroke="#000" stroke-miterlimit="10" stroke-width="0.2"/>
        <line id="Line_32" data-name="Line 32" x1="1.905" transform="translate(0 4.122)" fill="none" stroke="#000" stroke-miterlimit="10" stroke-width="0.2"/>
        <line id="Line_33" data-name="Line 33" x1="1.36" y1="1.326" transform="translate(1.199 1.2)" fill="none" stroke="#000" stroke-miterlimit="10" stroke-width="0.2"/>
        <path id="Path_2047" data-name="Path 2047" d="M453.536,303.874l1.672.633.583,1.672-.557,1.647-1.672.709-1.672-.735-.608-1.622.633-1.647Z" transform="translate(-449.389 -302.091)" fill="none" stroke="#000" stroke-miterlimit="10" stroke-width="0.2"/>
      </g>
      <g id="Group_465" data-name="Group 465" transform="translate(19.538 0.798)">
        <ellipse id="Ellipse_34" data-name="Ellipse 34" cx="3.365" cy="3.365" rx="3.365" ry="3.365" fill="none" stroke="#000" stroke-miterlimit="10" stroke-width="0.2"/>
        <line id="Line_34" data-name="Line 34" y2="1.556" transform="translate(3.365)" fill="none" stroke="#000" stroke-miterlimit="10" stroke-width="0.2"/>
        <line id="Line_35" data-name="Line 35" x1="0.979" y2="0.958" transform="translate(4.792 1.014)" fill="none" stroke="#000" stroke-miterlimit="10" stroke-width="0.2"/>
        <line id="Line_36" data-name="Line 36" x2="1.556" transform="translate(5.175 3.365)" fill="none" stroke="#000" stroke-miterlimit="10" stroke-width="0.2"/>
        <line id="Line_37" data-name="Line 37" x2="1.027" y2="1.027" transform="translate(4.751 4.662)" fill="none" stroke="#000" stroke-miterlimit="10" stroke-width="0.2"/>
        <line id="Line_38" data-name="Line 38" y2="1.556" transform="translate(3.365 5.175)" fill="none" stroke="#000" stroke-miterlimit="10" stroke-width="0.2"/>
        <line id="Line_39" data-name="Line 39" x1="1.079" y2="1.079" transform="translate(0.989 4.655)" fill="none" stroke="#000" stroke-miterlimit="10" stroke-width="0.2"/>
        <line id="Line_40" data-name="Line 40" x1="1.556" transform="translate(0 3.365)" fill="none" stroke="#000" stroke-miterlimit="10" stroke-width="0.2"/>
        <line id="Line_41" data-name="Line 41" x1="1.11" y1="1.083" transform="translate(0.979 0.98)" fill="none" stroke="#000" stroke-miterlimit="10" stroke-width="0.2"/>
        <path id="Path_2048" data-name="Path 2048" d="M469.31,304.83l1.365.517.476,1.365-.455,1.345-1.365.579-1.365-.6-.5-1.324.517-1.345Z" transform="translate(-465.925 -303.374)" fill="none" stroke="#000" stroke-miterlimit="10" stroke-width="0.2"/>
      </g>
      <g id="Group_466" data-name="Group 466" transform="translate(4.461 0.798)">
        <ellipse id="Ellipse_35" data-name="Ellipse 35" cx="3.365" cy="3.365" rx="3.365" ry="3.365" fill="none" stroke="#000" stroke-miterlimit="10" stroke-width="0.2"/>
        <line id="Line_42" data-name="Line 42" y2="1.556" transform="translate(3.365)" fill="none" stroke="#000" stroke-miterlimit="10" stroke-width="0.2"/>
        <line id="Line_43" data-name="Line 43" x1="0.979" y2="0.958" transform="translate(4.792 1.014)" fill="none" stroke="#000" stroke-miterlimit="10" stroke-width="0.2"/>
        <line id="Line_44" data-name="Line 44" x2="1.556" transform="translate(5.175 3.365)" fill="none" stroke="#000" stroke-miterlimit="10" stroke-width="0.2"/>
        <line id="Line_45" data-name="Line 45" x2="1.027" y2="1.027" transform="translate(4.751 4.662)" fill="none" stroke="#000" stroke-miterlimit="10" stroke-width="0.2"/>
        <line id="Line_46" data-name="Line 46" y2="1.556" transform="translate(3.365 5.175)" fill="none" stroke="#000" stroke-miterlimit="10" stroke-width="0.2"/>
        <line id="Line_47" data-name="Line 47" x1="1.079" y2="1.079" transform="translate(0.989 4.655)" fill="none" stroke="#000" stroke-miterlimit="10" stroke-width="0.2"/>
        <line id="Line_48" data-name="Line 48" x1="1.556" transform="translate(0 3.365)" fill="none" stroke="#000" stroke-miterlimit="10" stroke-width="0.2"/>
        <line id="Line_49" data-name="Line 49" x1="1.11" y1="1.083" transform="translate(0.979 0.98)" fill="none" stroke="#000" stroke-miterlimit="10" stroke-width="0.2"/>
        <path id="Path_2049" data-name="Path 2049" d="M438.674,304.83l1.365.517.476,1.365-.455,1.345-1.365.579-1.365-.6-.5-1.324.517-1.345Z" transform="translate(-435.288 -303.374)" fill="none" stroke="#000" stroke-miterlimit="10" stroke-width="0.2"/>
      </g>
    </g>
  </g>
</svg>