<svg xmlns:xlink="http://www.w3.org/1999/xlink" xmlns="http://www.w3.org/2000/svg" width="31.148" height="11.641" viewBox="0 0 31.148 11.641">
  <g id="Group_10691" data-name="Group 10691" transform="translate(0.1 0.1)">
    <g id="Group_1986" data-name="Group 1986" transform="translate(0 0)">
      <g id="Group_1969" data-name="Group 1969" transform="translate(0 0)">
        <g id="Group_1939" data-name="Group 1939" transform="translate(0 0)">
          <g id="Capa_1" transform="translate(0 4.119)">
            <path id="Rectangle_1559_00000049942402600008723100000014533125507344290954_" d="M10.1,10.332H.829A.635.635,0,0,1,.2,9.7V7.929A.635.635,0,0,1,.829,7.3h9.325" transform="translate(-0.2 -7.3)" fill="none" stroke="#000" stroke-miterlimit="10" stroke-width="0.2"/>
            <path id="Rectangle_1559_00000062908552517936345430000008942137881472797842_" d="M36.9,7.3h9.325a.635.635,0,0,1,.629.629V9.7a.635.635,0,0,1-.629.629H36.957" transform="translate(-15.905 -7.3)" fill="none" stroke="#000" stroke-miterlimit="10" stroke-width="0.2"/>
          </g>
          <g id="Group_1931" data-name="Group 1931" transform="translate(9.725 0)">
            <ellipse id="Ellipse_13" cx="5.721" cy="5.721" rx="5.721" ry="5.721" transform="translate(0)" fill="none" stroke="#000" stroke-miterlimit="10" stroke-width="0.2"/>
            <line id="Line_10" y2="2.631" transform="translate(5.721)" fill="none" stroke="#000" stroke-miterlimit="10" stroke-width="0.2"/>
            <line id="Line_11" x1="1.659" y2="1.659" transform="translate(8.18 1.716)" fill="none" stroke="#000" stroke-miterlimit="10" stroke-width="0.2"/>
            <line id="Line_12" x2="2.689" transform="translate(8.81 5.721)" fill="none" stroke="#000" stroke-miterlimit="10" stroke-width="0.2"/>
            <line id="Line_13" x2="1.716" y2="1.716" transform="translate(8.123 7.952)" fill="none" stroke="#000" stroke-miterlimit="10" stroke-width="0.2"/>
            <line id="Line_14" y2="2.631" transform="translate(5.721 8.81)" fill="none" stroke="#000" stroke-miterlimit="10" stroke-width="0.2"/>
            <line id="Line_15" x1="1.831" y2="1.831" transform="translate(1.716 7.952)" fill="none" stroke="#000" stroke-miterlimit="10" stroke-width="0.2"/>
            <line id="Line_16" x1="2.689" transform="translate(0 5.721)" fill="none" stroke="#000" stroke-miterlimit="10" stroke-width="0.2"/>
            <line id="Line_17" x1="1.888" y1="1.831" transform="translate(1.659 1.659)" fill="none" stroke="#000" stroke-miterlimit="10" stroke-width="0.2"/>
            <path id="Path_2042" d="M24.946,4.4l2.345.915.8,2.345-.8,2.288-2.345.973-2.288-1.03L21.8,7.6l.858-2.288Z" transform="translate(-19.169 -1.94)" fill="none" stroke="#000" stroke-miterlimit="10" stroke-width="0.2"/>
          </g>
        </g>
        <path id="Path_5963" data-name="Path 5963" d="M-9104.867-3124.685a3.149,3.149,0,0,0-2.787,2.958" transform="translate(9114.746 3128.869)" fill="none" stroke="#000" stroke-linecap="round" stroke-width="0.2"/>
        <path id="Path_5972" data-name="Path 5972" d="M-9106.682-3123.385a3.238,3.238,0,0,0-.973,2.146" transform="translate(9116.444 3128.382)" fill="none" stroke="#000" stroke-linecap="round" stroke-width="0.2"/>
        <path id="Path_5967" data-name="Path 5967" d="M-9105.044-3122.306a3.193,3.193,0,0,0,1.295-2.379" transform="translate(9126.213 3128.869)" fill="none" stroke="#000" stroke-linecap="round" stroke-width="0.2"/>
        <path id="Path_5968" data-name="Path 5968" d="M-9107.654-3121.727a3.149,3.149,0,0,0,2.787-2.958" transform="translate(9131.336 3128.869)" fill="none" stroke="#000" stroke-linecap="round" stroke-width="0.2"/>
        <path id="Path_5971" data-name="Path 5971" d="M-9107.654-3121.727a3.149,3.149,0,0,0,2.787-2.958" transform="translate(9129.048 3128.869)" fill="none" stroke="#000" stroke-linecap="round" stroke-width="0.2"/>
        <path id="Path_5969" data-name="Path 5969" d="M-9107.654-3121.727a3.149,3.149,0,0,0,2.787-2.958" transform="translate(9133.623 3128.869)" fill="none" stroke="#000" stroke-linecap="round" stroke-width="0.2"/>
        <path id="Path_5970" data-name="Path 5970" d="M-9107.654-3121.727a3.149,3.149,0,0,0,2.787-2.958" transform="translate(9135.465 3128.869)" fill="none" stroke="#000" stroke-linecap="round" stroke-width="0.2"/>
        <path id="Path_5964" data-name="Path 5964" d="M-9104.867-3124.685a3.149,3.149,0,0,0-2.787,2.958" transform="translate(9112.457 3128.869)" fill="none" stroke="#000" stroke-linecap="round" stroke-width="0.2"/>
        <path id="Path_5965" data-name="Path 5965" d="M-9104.867-3124.685a3.149,3.149,0,0,0-2.787,2.958" transform="translate(9110.169 3128.869)" fill="none" stroke="#000" stroke-linecap="round" stroke-width="0.2"/>
        <path id="Path_5966" data-name="Path 5966" d="M-9104.867-3124.685a3.149,3.149,0,0,0-2.787,2.958" transform="translate(9108.006 3128.869)" fill="none" stroke="#000" stroke-linecap="round" stroke-width="0.2"/>
      </g>
    </g>
  </g>
</svg>