<svg xmlns:xlink="http://www.w3.org/1999/xlink" xmlns="http://www.w3.org/2000/svg" width="31.046" height="10.5" viewBox="0 0 31.046 10.5">
  <g id="Group_10694" data-name="Group 10694" transform="translate(0.1 0.1)">
    <g id="Group_1983" data-name="Group 1983" transform="translate(0 0)">
      <g id="Group_1966" data-name="Group 1966" transform="translate(0 0)">
        <g id="Group_1911" data-name="Group 1911" transform="translate(10.248 0)">
          <ellipse id="Ellipse_13" cx="5.15" cy="5.15" rx="5.15" ry="5.15" transform="translate(0 0)" fill="none" stroke="#000" stroke-miterlimit="10" stroke-width="0.2"/>
          <line id="Line_10" y2="2.369" transform="translate(5.15 0)" fill="none" stroke="#000" stroke-miterlimit="10" stroke-width="0.2"/>
          <line id="Line_11" x1="1.493" y2="1.493" transform="translate(7.364 1.545)" fill="none" stroke="#000" stroke-miterlimit="10" stroke-width="0.2"/>
          <line id="Line_12" x2="2.42" transform="translate(7.931 5.15)" fill="none" stroke="#000" stroke-miterlimit="10" stroke-width="0.2"/>
          <line id="Line_13" x2="1.545" y2="1.545" transform="translate(7.313 7.158)" fill="none" stroke="#000" stroke-miterlimit="10" stroke-width="0.2"/>
          <line id="Line_14" y2="2.369" transform="translate(5.15 7.931)" fill="none" stroke="#000" stroke-miterlimit="10" stroke-width="0.2"/>
          <line id="Line_15" x1="1.648" y2="1.648" transform="translate(1.545 7.158)" fill="none" stroke="#000" stroke-miterlimit="10" stroke-width="0.2"/>
          <line id="Line_16" x1="2.42" transform="translate(0 5.15)" fill="none" stroke="#000" stroke-miterlimit="10" stroke-width="0.2"/>
          <line id="Line_17" x1="1.699" y1="1.648" transform="translate(1.493 1.493)" fill="none" stroke="#000" stroke-miterlimit="10" stroke-width="0.2"/>
          <path id="Path_2042" d="M24.632,4.4l2.111.824.721,2.111L26.744,9.4l-2.111.875-2.06-.927L21.8,7.284l.772-2.06Z" transform="translate(-19.431 -2.186)" fill="none" stroke="#000" stroke-miterlimit="10" stroke-width="0.2"/>
        </g>
        <g id="Group_1928" data-name="Group 1928" transform="translate(0 3.45)">
          <g id="Group_1916" data-name="Group 1916" transform="translate(4.326 0)">
            <g id="Group_1915" data-name="Group 1915" transform="translate(0 0)">
              <path id="Path_5947" data-name="Path 5947" d="M9.287,7.057A3.042,3.042,0,0,1,11.913,8.4,3.042,3.042,0,0,1,9.287,9.735H9.235A2.812,2.812,0,0,1,6.557,8.4,2.812,2.812,0,0,1,9.235,7.057h.051m0-.257H9.235A3.011,3.011,0,0,0,6.351,8.293L6.3,8.448l.051.1a3.134,3.134,0,0,0,2.935,1.493h.051a3.2,3.2,0,0,0,2.832-1.493l.051-.1-.051-.1A3.349,3.349,0,0,0,9.287,6.8Z" transform="translate(-6.3 -6.8)"/>
            </g>
          </g>
          <g id="Ellipse_13_00000004521450578561634390000007088494195690568630_" transform="translate(1.184 0)">
            <path id="Path_5948" data-name="Path 5948" d="M2.8,7.057a1.339,1.339,0,1,1,0,2.678A1.319,1.319,0,0,1,1.457,8.448,1.374,1.374,0,0,1,2.8,7.057m0-.257a1.6,1.6,0,1,0,1.6,1.6A1.6,1.6,0,0,0,2.8,6.8Z" transform="translate(-1.2 -6.8)"/>
          </g>
          <path id="Path_5962" data-name="Path 5962" d="M-9329.226-3123.346s.994.556,1.17,1.113-1.17,1.151-1.17,1.151Z" transform="translate(9329.226 3123.837)" fill="none" stroke="#000" stroke-width="0.2"/>
        </g>
        <g id="Group_1929" data-name="Group 1929" transform="translate(30.847 6.695) rotate(180)">
          <g id="Group_1916-2" data-name="Group 1916" transform="translate(4.326 0)">
            <g id="Group_1915-2" data-name="Group 1915" transform="translate(0 0)">
              <path id="Path_5947-2" data-name="Path 5947" d="M2.987.257A3.042,3.042,0,0,1,5.613,1.6,3.042,3.042,0,0,1,2.987,2.935H2.935A2.812,2.812,0,0,1,.257,1.6,2.812,2.812,0,0,1,2.935.257h.051m0-.257H2.935A3.011,3.011,0,0,0,.051,1.493L0,1.648l.051.1A3.134,3.134,0,0,0,2.987,3.244h.051A3.2,3.2,0,0,0,5.871,1.751l.051-.1-.051-.1A3.349,3.349,0,0,0,2.987,0Z"/>
            </g>
          </g>
          <g id="Ellipse_13_00000004521450578561634390000007088494195690568630_2" data-name="Ellipse_13_00000004521450578561634390000007088494195690568630_" transform="translate(1.184 0)">
            <path id="Path_5948-2" data-name="Path 5948" d="M1.6.257A1.363,1.363,0,0,1,2.935,1.6,1.363,1.363,0,0,1,1.6,2.935,1.319,1.319,0,0,1,.257,1.648,1.374,1.374,0,0,1,1.6.257M1.6,0A1.6,1.6,0,0,0,0,1.6a1.6,1.6,0,0,0,1.6,1.6,1.6,1.6,0,0,0,1.6-1.6A1.6,1.6,0,0,0,1.6,0Z" transform="translate(0 0)"/>
          </g>
          <path id="Path_5962-2" data-name="Path 5962" d="M0,0S.995.556,1.169,1.113,0,2.264,0,2.264Z" transform="translate(0 0.491)" fill="none" stroke="#000" stroke-width="0.2"/>
        </g>
      </g>
    </g>
  </g>
</svg>